<?xml version="1.0" encoding="us-ascii" standalone="no"?><svg xmlns="http://www.w3.org/2000/svg" xmlns:xlink="http://www.w3.org/1999/xlink" contentStyleType="text/css" height="350px" preserveAspectRatio="none" style="width:1164px;height:350px;background:#FFFFFF;" version="1.1" viewBox="0 0 1164 350" width="1164px" zoomAndPan="magnify"><defs/><g><!--cluster Syst?me de jeu--><g id="cluster_Syst&#232;me de jeu"><rect fill="none" height="150" rx="2.5" ry="2.5" style="stroke:#181818;stroke-width:1.0;" width="929.5" x="7" y="99.5"/><text fill="#000000" font-family="sans-serif" font-size="14" font-weight="bold" lengthAdjust="spacing" textLength="107" x="418.25" y="116.0332">Syst&#232;me de jeu</text></g><g id="elem_UC1"><ellipse cx="123.9506" cy="207.5901" fill="#F1F1F1" rx="100.9506" ry="22.5901" style="stroke:#181818;stroke-width:0.5;"/><text fill="#000000" font-family="sans-serif" font-size="14" lengthAdjust="spacing" textLength="163" x="42.4506" y="211.3186">Detecter la fin de la partie</text></g><g id="elem_UC2"><ellipse cx="403.2402" cy="207.548" fill="#F1F1F1" rx="118.2402" ry="26.048" style="stroke:#181818;stroke-width:0.5;"/><text fill="#000000" font-family="sans-serif" font-size="14" lengthAdjust="spacing" textLength="201" x="302.7402" y="211.2766">Afficher le menu de fin de partie</text></g><g id="elem_UC3"><ellipse cx="656.2256" cy="211.4451" fill="#F1F1F1" rx="75.2256" ry="17.4451" style="stroke:#181818;stroke-width:0.5;"/><text fill="#000000" font-family="sans-serif" font-size="14" lengthAdjust="spacing" textLength="102" x="602.2256" y="215.9617">Afficher le score</text></g><g id="elem_UC4"><ellipse cx="873.4051" cy="151.47" fill="#F1F1F1" rx="46.9051" ry="15.47" style="stroke:#181818;stroke-width:0.5;"/><text fill="#000000" font-family="sans-serif" font-size="14" lengthAdjust="spacing" textLength="50" x="846.7227" y="155.6764">Rejouer</text></g><g id="elem_UC5"><ellipse cx="873.3909" cy="217.4517" fill="#F1F1F1" rx="41.8909" ry="15.4517" style="stroke:#181818;stroke-width:0.5;"/><text fill="#000000" font-family="sans-serif" font-size="14" lengthAdjust="spacing" textLength="43" x="851.8454" y="221.1948">Quitter</text></g><!--entity J--><g id="elem_J"><ellipse cx="656" cy="14" fill="#F1F1F1" rx="8" ry="8" style="stroke:#181818;stroke-width:0.5;"/><path d="M656,22 L656,49 M643,30 L669,30 M656,49 L643,64 M656,49 L669,64 " fill="none" style="stroke:#181818;stroke-width:0.5;"/><text fill="#000000" font-family="sans-serif" font-size="14" lengthAdjust="spacing" textLength="43" x="634.5" y="80.0332">Joueur</text></g><g id="elem_GMN15"><path d="M791,268 L791,268 L692.59,227.02 L791,276 L791,343.4063 A0,0 0 0 0 791,343.4063 L956,343.4063 A0,0 0 0 0 956,343.4063 L956,278 L946,268 L791,268 A0,0 0 0 0 791,268 " fill="#FEFFDD" style="stroke:#181818;stroke-width:0.5;"/><path d="M946,268 L946,278 L956,278 L946,268 " fill="#FEFFDD" style="stroke:#181818;stroke-width:0.5;"/><text fill="#000000" font-family="sans-serif" font-size="13" lengthAdjust="spacing" textLength="101" x="797" y="286.4951">Afficher le score :</text><text fill="#000000" font-family="sans-serif" font-size="13" lengthAdjust="spacing" textLength="115" x="797" y="302.8467">- Nombre de vagues</text><text fill="#000000" font-family="sans-serif" font-size="13" lengthAdjust="spacing" textLength="104" x="797" y="319.1982">- Nombre de tours</text><text fill="#000000" font-family="sans-serif" font-size="13" lengthAdjust="spacing" textLength="144" x="797" y="335.5498">- Nombre d'ennemis tu&#233;s</text></g><g id="elem_GMN18"><path d="M1016,124 L1016,143.48 L920.54,150.19 L1016,151.48 L1016,166.7031 A0,0 0 0 0 1016,166.7031 L1157,166.7031 A0,0 0 0 0 1157,166.7031 L1157,134 L1147,124 L1016,124 A0,0 0 0 0 1016,124 " fill="#FEFFDD" style="stroke:#181818;stroke-width:0.5;"/><path d="M1147,124 L1147,134 L1157,134 L1147,124 " fill="#FEFFDD" style="stroke:#181818;stroke-width:0.5;"/><text fill="#000000" font-family="sans-serif" font-size="13" lengthAdjust="spacing" textLength="52" x="1022" y="142.4951">Rejouer :</text><text fill="#000000" font-family="sans-serif" font-size="13" lengthAdjust="spacing" textLength="120" x="1022" y="158.8467">- Recharger la sc&#232;ne</text></g><g id="elem_GMN21"><path d="M1034,202 L1034,218.03 L915.43,218.66 L1034,226.03 L1034,244.7031 A0,0 0 0 0 1034,244.7031 L1139,244.7031 A0,0 0 0 0 1139,244.7031 L1139,212 L1129,202 L1034,202 A0,0 0 0 0 1034,202 " fill="#FEFFDD" style="stroke:#181818;stroke-width:0.5;"/><path d="M1129,202 L1129,212 L1139,212 L1129,202 " fill="#FEFFDD" style="stroke:#181818;stroke-width:0.5;"/><text fill="#000000" font-family="sans-serif" font-size="13" lengthAdjust="spacing" textLength="47" x="1040" y="220.4951">Quitter :</text><text fill="#000000" font-family="sans-serif" font-size="13" lengthAdjust="spacing" textLength="84" x="1040" y="236.8467">- Fermer le jeu</text></g><!--link UC1 to UC2--><g id="link_UC1_UC2"><path d="M225,207.5 C244.37,207.5 258.84,207.5 278.7,207.5 " fill="none" id="UC1-to-UC2" style="stroke:#181818;stroke-width:1.0;"/><polygon fill="#181818" points="284.7,207.5,275.7,203.5,279.7,207.5,275.7,211.5,284.7,207.5" style="stroke:#181818;stroke-width:1.0;"/></g><!--link UC2 to UC3--><g id="link_UC2_UC3"><path d="M521.05,209.37 C541.5,209.69 556.2508,209.9246 575.1108,210.2246 " fill="none" id="UC2-to-UC3" style="stroke:#181818;stroke-width:1.0;"/><polygon fill="#181818" points="581.11,210.32,572.1748,206.1774,576.1106,210.2405,572.0475,214.1764,581.11,210.32" style="stroke:#181818;stroke-width:1.0;"/></g><!--link UC3 to UC4--><g id="link_UC3_UC4"><path d="M704.83,198.18 C744.75,187.07 795,173.08 831.08,163.03 " fill="none" id="UC3-to-UC4" style="stroke:#181818;stroke-width:1.0;"/><polygon fill="#181818" points="836.86,161.42,827.1167,159.9817,832.0434,162.7617,829.2634,167.6883,836.86,161.42" style="stroke:#181818;stroke-width:1.0;"/></g><!--link UC3 to UC5--><g id="link_UC3_UC5"><path d="M730.56,213.55 C764.34,214.49 797.1123,215.4036 825.5923,216.1936 " fill="none" id="UC3-to-UC5" style="stroke:#181818;stroke-width:1.0;"/><polygon fill="#181818" points="831.59,216.36,822.7044,212.112,826.5919,216.2214,822.4825,220.1089,831.59,216.36" style="stroke:#181818;stroke-width:1.0;"/></g><!--link J to UC4--><g id="link_J_UC4"><path d="M677.66,54.76 C717.17,74.37 797.946,114.4816 841.226,135.9716 " fill="none" id="J-to-UC4" style="stroke:#181818;stroke-width:1.0;"/><polygon fill="#181818" points="846.6,138.64,840.3179,131.0548,842.1217,136.4164,836.7601,138.2201,846.6,138.64" style="stroke:#181818;stroke-width:1.0;"/></g><!--link J to UC5--><g id="link_J_UC5"><path d="M677.6,65.01 C692.55,79.98 713.19,100.84 731,119.5 C758.14,147.94 758.66,162.14 791,184.5 C805.82,194.75 818.6242,200.5855 834.2342,206.0255 " fill="none" id="J-to-UC5" style="stroke:#181818;stroke-width:1.0;"/><polygon fill="#181818" points="839.9,208,832.7176,201.261,835.1785,206.3546,830.085,208.8154,839.9,208" style="stroke:#181818;stroke-width:1.0;"/></g><!--SRC=[VL91JiGm3Bpd5LOld7g0RYySa128Gmz8x8e7XDHjizicgyH1MY7-ixoZ7oDfGw1KK2cIC-Fns4vxR0X8Wv5jHr1BWuAaLimUf3fommSuSd7WBUxer2C4cgksHyQu86sWqWwT0MwXOYonaErEbiRpW50ZxD5byCR0VywYuDRpzqW-6Gtq71gfGfgFl2D9p4AvvxlBfUAsQQJeWW9XGEM292eNigk_PLPeyvLMBDEskFUJc4XkbkIJaqI9BDaxOxuzoFERoS-V61U1AE9byoCk6QiIN7s3IXF6tUicTRNg6QudF8T7FRoOQQcll7LeLp1fPtwZ5wWK3j82kV73CbGr1D-r-pnsN4NotABek6ddjx9YF2lyfqOvgUB6Keq7DCCyZ_yPaleJ]--></g></svg>