<?xml version="1.0" encoding="us-ascii" standalone="no"?><svg xmlns="http://www.w3.org/2000/svg" xmlns:xlink="http://www.w3.org/1999/xlink" contentStyleType="text/css" height="440px" preserveAspectRatio="none" style="width:1544px;height:440px;background:#FFFFFF;" version="1.1" viewBox="0 0 1544 440" width="1544px" zoomAndPan="magnify"><defs/><g><!--cluster Syst?me de jeu--><g id="cluster_Syst&#232;me de jeu"><rect fill="none" height="335" rx="2.5" ry="2.5" style="stroke:#181818;stroke-width:1.0;" width="1178" x="96" y="7"/><text fill="#000000" font-family="sans-serif" font-size="14" font-weight="bold" lengthAdjust="spacing" textLength="107" x="631.5" y="23.5332">Syst&#232;me de jeu</text></g><g id="elem_UC1"><ellipse cx="227.0137" cy="68.9027" fill="#F1F1F1" rx="115.0137" ry="25.4027" style="stroke:#181818;stroke-width:0.5;"/><text fill="#000000" font-family="sans-serif" font-size="14" lengthAdjust="spacing" textLength="194" x="130.0137" y="72.6313">Ouvrir le menu de construction</text></g><g id="elem_UC2"><ellipse cx="227.105" cy="150.221" fill="#F1F1F1" rx="89.105" ry="20.221" style="stroke:#181818;stroke-width:0.5;"/><text fill="#000000" font-family="sans-serif" font-size="14" lengthAdjust="spacing" textLength="136" x="159.105" y="153.9495">S&#233;lectionner une tour</text></g><g id="elem_UC3"><ellipse cx="226.8449" cy="227.769" fill="#F1F1F1" rx="101.8449" ry="22.769" style="stroke:#181818;stroke-width:0.5;"/><text fill="#000000" font-family="sans-serif" font-size="14" lengthAdjust="spacing" textLength="165" x="144.3449" y="231.4975">Pr&#233;visualiser le placement</text></g><g id="elem_UC4"><ellipse cx="227.1926" cy="306.0385" fill="#F1F1F1" rx="85.6926" ry="19.5385" style="stroke:#181818;stroke-width:0.5;"/><text fill="#000000" font-family="sans-serif" font-size="14" lengthAdjust="spacing" textLength="128" x="163.1926" y="309.767">Valider le placement</text></g><g id="elem_UC5"><ellipse cx="561.7628" cy="291.1526" fill="#F1F1F1" rx="91.2628" ry="20.6526" style="stroke:#181818;stroke-width:0.5;"/><text fill="#000000" font-family="sans-serif" font-size="14" lengthAdjust="spacing" textLength="141" x="491.2628" y="294.8811">V&#233;rifier les ressources</text></g><g id="elem_UC6"><ellipse cx="942.2877" cy="291.0575" fill="#F1F1F1" rx="78.2877" ry="18.0575" style="stroke:#181818;stroke-width:0.5;"/><text fill="#000000" font-family="sans-serif" font-size="14" lengthAdjust="spacing" textLength="110" x="885.5149" y="295.2774">Construire la tour</text></g><g id="elem_UC7"><ellipse cx="1170.2471" cy="291.0494" fill="#F1F1F1" rx="88.2471" ry="20.0494" style="stroke:#181818;stroke-width:0.5;"/><text fill="#000000" font-family="sans-serif" font-size="14" lengthAdjust="spacing" textLength="134" x="1103.2471" y="294.7779">Commencer l'attaque</text></g><!--entity J--><g id="elem_J"><ellipse cx="27.5" cy="168.5" fill="#F1F1F1" rx="8" ry="8" style="stroke:#181818;stroke-width:0.5;"/><path d="M27.5,176.5 L27.5,203.5 M14.5,184.5 L40.5,184.5 M27.5,203.5 L14.5,218.5 M27.5,203.5 L40.5,218.5 " fill="none" style="stroke:#181818;stroke-width:0.5;"/><text fill="#000000" font-family="sans-serif" font-size="14" lengthAdjust="spacing" textLength="43" x="6" y="234.5332">Joueur</text></g><g id="elem_GMN18"><path d="M468,358.5 L468,366.81 L282.99,320.86 L468,374.81 L468,433.9063 A0,0 0 0 0 468,433.9063 L656,433.9063 A0,0 0 0 0 656,433.9063 L656,368.5 L646,358.5 L468,358.5 A0,0 0 0 0 468,358.5 " fill="#FEFFDD" style="stroke:#181818;stroke-width:0.5;"/><path d="M646,358.5 L646,368.5 L656,368.5 L646,358.5 " fill="#FEFFDD" style="stroke:#181818;stroke-width:0.5;"/><text fill="#000000" font-family="sans-serif" font-size="13" lengthAdjust="spacing" textLength="98" x="474" y="376.9951">Si zone invalide :</text><text fill="#000000" font-family="sans-serif" font-size="13" lengthAdjust="spacing" textLength="130" x="474" y="393.3467">- Refuser le placement</text><text fill="#000000" font-family="sans-serif" font-size="13" lengthAdjust="spacing" textLength="167" x="474" y="409.6982">Si joueur n'a pas assez d'or :</text><text fill="#000000" font-family="sans-serif" font-size="13" lengthAdjust="spacing" textLength="107" x="474" y="426.0498">- Message d'erreur</text></g><g id="elem_GMN21"><path d="M1321,269.5 L1321,287 L1258.01,291 L1321,295 L1321,312.2031 A0,0 0 0 0 1321,312.2031 L1537,312.2031 A0,0 0 0 0 1537,312.2031 L1537,279.5 L1527,269.5 L1321,269.5 A0,0 0 0 0 1321,269.5 " fill="#FEFFDD" style="stroke:#181818;stroke-width:0.5;"/><path d="M1527,269.5 L1527,279.5 L1537,279.5 L1527,269.5 " fill="#FEFFDD" style="stroke:#181818;stroke-width:0.5;"/><text fill="#000000" font-family="sans-serif" font-size="13" lengthAdjust="spacing" textLength="191" x="1327" y="287.9951">La tour attaque automatiquement</text><text fill="#000000" font-family="sans-serif" font-size="13" lengthAdjust="spacing" textLength="121" x="1327" y="304.3467">les ennemis &#224; port&#233;e</text></g><!--link J to UC1--><g id="link_J_UC1"><path d="M47.63,159.84 C57.59,143.01 71.22,124.4 88,112 C103.44,100.59 116.285,94.0787 134.685,87.8687 " fill="none" id="J-to-UC1" style="stroke:#181818;stroke-width:1.0;"/><polygon fill="#181818" points="140.37,85.95,130.5635,85.038,135.6325,87.5489,133.1217,92.618,140.37,85.95" style="stroke:#181818;stroke-width:1.0;"/></g><!--link J to UC2--><g id="link_J_UC2"><path d="M49.47,191.36 C58.49,188.23 69.19,184.71 79,182 C104.93,174.84 127.9185,169.4952 153.1585,164.1852 " fill="none" id="J-to-UC2" style="stroke:#181818;stroke-width:1.0;"/><polygon fill="#181818" points="159.03,162.95,149.3993,160.8885,154.1371,163.9794,151.0463,168.7172,159.03,162.95" style="stroke:#181818;stroke-width:1.0;"/></g><!--link J to UC3--><g id="link_J_UC3"><path d="M49.26,202.05 C71.15,205.26 101.1335,209.6696 134.8935,214.6196 " fill="none" id="J-to-UC3" style="stroke:#181818;stroke-width:1.0;"/><polygon fill="#181818" points="140.83,215.49,132.5055,210.2267,135.8829,214.7646,131.3449,218.142,140.83,215.49" style="stroke:#181818;stroke-width:1.0;"/></g><!--link J to UC4--><g id="link_J_UC4"><path d="M49.04,230.24 C59.29,243.62 72.76,258.36 88,268 C108.27,280.82 127.0387,287.9166 149.8287,293.6066 " fill="none" id="J-to-UC4" style="stroke:#181818;stroke-width:1.0;"/><polygon fill="#181818" points="155.65,295.06,147.887,288.999,150.7989,293.8488,145.9491,296.7608,155.65,295.06" style="stroke:#181818;stroke-width:1.0;"/></g><!--link UC4 to UC5--><g id="link_UC4_UC5"><path d="M311.17,302.25 C360.2,300.05 416.2161,297.5198 466.1961,295.2698 " fill="none" id="UC4-to-UC5" style="stroke:#181818;stroke-width:1.0;"/><polygon fill="#181818" points="472.19,295,463.0192,291.4088,467.1951,295.2249,463.379,299.4007,472.19,295" style="stroke:#181818;stroke-width:1.0;"/><text fill="#000000" font-family="sans-serif" font-size="13" lengthAdjust="spacing" textLength="64" x="373" y="293.4951">V&#233;rification</text></g><!--link UC5 to UC6--><g id="link_UC5_UC6"><path d="M653.66,291 C717.74,291 796.74,291 857.74,291 " fill="none" id="UC5-to-UC6" style="stroke:#181818;stroke-width:1.0;"/><polygon fill="#181818" points="863.74,291,854.74,287,858.74,291,854.74,295,863.74,291" style="stroke:#181818;stroke-width:1.0;"/><text fill="#000000" font-family="sans-serif" font-size="13" lengthAdjust="spacing" textLength="146" x="687" y="287.4951">Si ressources suffisantes</text></g><!--link UC6 to UC7--><g id="link_UC6_UC7"><path d="M1021.1,291 C1040.72,291 1055.92,291 1075.97,291 " fill="none" id="UC6-to-UC7" style="stroke:#181818;stroke-width:1.0;"/><polygon fill="#181818" points="1081.97,291,1072.97,287,1076.97,291,1072.97,295,1081.97,291" style="stroke:#181818;stroke-width:1.0;"/></g><!--SRC=[RPBFJiCm3CRlUGfhbvrsuDycSU32RGA1cE1kfUu8QvCI9vCOubquqkVeY-6atQ23IfMi-6VxonTNL0O83hnPFmSeZ2STZBEADyOswB661lK6rxGARnL1IgDTLwGKwk0yB5saw04PbaeTiZ1PlN7elcg2Wk25uWJU5SWNcJIovE_YrXiFWjPaOwAqinnypECdgU7ZzScuPjMrLI_FaeTeIOH7Fx2dO_RUT-tMSCJACEKvJOMQP5WO2ix61Kz25l-JvqTartfJciooEC8iAZJnG5-CwUl-Mc8iLFXRyFoOgsMaJbsd60A-HXh0XVfGQWcpsLMsP1-T7gApGtIkv1_Y2xY4GQh6_ARfhC_D9RSolxG3nx8qZ3OGgvJlkOLIohf0mtguyk26LE-Sl82nssmSNERZ6JnG6OyTtrUyzCjYfoXRnN8xfXqKKrcZVVMjA99baqFoNbX5je2auA-EHIwvwJs5mJB065mjrvKuJOOCfNSYMPhQC7IVq3WVkfP-Udy3]--></g></svg>