<?xml version="1.0" encoding="us-ascii" standalone="no"?><svg xmlns="http://www.w3.org/2000/svg" xmlns:xlink="http://www.w3.org/1999/xlink" contentStyleType="text/css" height="179px" preserveAspectRatio="none" style="width:1635px;height:179px;background:#FFFFFF;" version="1.1" viewBox="0 0 1635 179" width="1635px" zoomAndPan="magnify"><defs/><g><!--cluster Syst?me de jeu--><g id="cluster_Syst&#232;me de jeu"><rect fill="none" height="106" rx="2.5" ry="2.5" style="stroke:#181818;stroke-width:1.0;" width="1373.5" x="96" y="7"/><text fill="#000000" font-family="sans-serif" font-size="14" font-weight="bold" lengthAdjust="spacing" textLength="107" x="729.25" y="23.5332">Syst&#232;me de jeu</text></g><g id="elem_UC1"><ellipse cx="201.105" cy="65.221" fill="#F1F1F1" rx="89.105" ry="20.221" style="stroke:#181818;stroke-width:0.5;"/><text fill="#000000" font-family="sans-serif" font-size="14" lengthAdjust="spacing" textLength="136" x="133.105" y="68.9495">S&#233;lectionner une tour</text></g><g id="elem_UC2"><ellipse cx="474.3414" cy="70.0683" fill="#F1F1F1" rx="123.3414" ry="27.0683" style="stroke:#181818;stroke-width:0.5;"/><text fill="#000000" font-family="sans-serif" font-size="14" lengthAdjust="spacing" textLength="212" x="368.3414" y="73.7968">Afficher les options d'am&#233;lioration</text></g><g id="elem_UC3"><ellipse cx="730.2113" cy="70.1423" fill="#F1F1F1" rx="71.2113" ry="16.6423" style="stroke:#181818;stroke-width:0.5;"/><text fill="#000000" font-family="sans-serif" font-size="14" lengthAdjust="spacing" textLength="91" x="681.7113" y="74.6589">V&#233;rifier le co&#251;t</text></g><g id="elem_UC4"><ellipse cx="1054.9763" cy="69.0953" fill="#F1F1F1" rx="75.9763" ry="17.5953" style="stroke:#181818;stroke-width:0.5;"/><text fill="#000000" font-family="sans-serif" font-size="14" lengthAdjust="spacing" textLength="104" x="1000.0467" y="73.5957">Am&#233;liorer la tour</text></g><g id="elem_UC5"><ellipse cx="1345.7512" cy="68.8502" fill="#F1F1F1" rx="107.2512" ry="23.8502" style="stroke:#181818;stroke-width:0.5;"/><text fill="#000000" font-family="sans-serif" font-size="14" lengthAdjust="spacing" textLength="177" x="1257.2512" y="72.5788">Mettre &#224; jour les statistiques</text></g><!--entity J--><g id="elem_J"><ellipse cx="27.5" cy="87.5" fill="#F1F1F1" rx="8" ry="8" style="stroke:#181818;stroke-width:0.5;"/><path d="M27.5,95.5 L27.5,122.5 M14.5,103.5 L40.5,103.5 M27.5,122.5 L14.5,137.5 M27.5,122.5 L40.5,137.5 " fill="none" style="stroke:#181818;stroke-width:0.5;"/><text fill="#000000" font-family="sans-serif" font-size="14" lengthAdjust="spacing" textLength="43" x="6" y="153.5332">Joueur</text></g><g id="elem_GMN15"><path d="M940,129.5 L940,172.2031 A0,0 0 0 0 940,172.2031 L1170,172.2031 A0,0 0 0 0 1170,172.2031 L1170,139.5 L1160,129.5 L972.02,129.5 L779.01,82.04 L964.02,129.5 L940,129.5 A0,0 0 0 0 940,129.5 " fill="#FEFFDD" style="stroke:#181818;stroke-width:0.5;"/><path d="M1160,129.5 L1160,139.5 L1170,139.5 L1160,129.5 " fill="#FEFFDD" style="stroke:#181818;stroke-width:0.5;"/><text fill="#000000" font-family="sans-serif" font-size="13" lengthAdjust="spacing" textLength="181" x="946" y="147.9951">Si le joueur n'a pas assez d'or :</text><text fill="#000000" font-family="sans-serif" font-size="13" lengthAdjust="spacing" textLength="209" x="946" y="164.3467">- Impossible de cliquer sur le bouton</text></g><g id="elem_GMN18"><path d="M1231,129.5 L1231,172.2031 A0,0 0 0 0 1231,172.2031 L1461,172.2031 A0,0 0 0 0 1461,172.2031 L1461,139.5 L1451,129.5 L1273.21,129.5 L1103.72,82.54 L1265.21,129.5 L1231,129.5 A0,0 0 0 0 1231,129.5 " fill="#FEFFDD" style="stroke:#181818;stroke-width:0.5;"/><path d="M1451,129.5 L1451,139.5 L1461,139.5 L1451,129.5 " fill="#FEFFDD" style="stroke:#181818;stroke-width:0.5;"/><text fill="#000000" font-family="sans-serif" font-size="13" lengthAdjust="spacing" textLength="169" x="1237" y="147.9951">Si la tour est au niveau max :</text><text fill="#000000" font-family="sans-serif" font-size="13" lengthAdjust="spacing" textLength="209" x="1237" y="164.3467">- Impossible de cliquer sur le bouton</text></g><g id="elem_GMN21"><path d="M1522,31.5 L1522,65 L1453.52,69 L1522,73 L1522,106.9063 A0,0 0 0 0 1522,106.9063 L1628,106.9063 A0,0 0 0 0 1628,106.9063 L1628,41.5 L1618,31.5 L1522,31.5 A0,0 0 0 0 1522,31.5 " fill="#FEFFDD" style="stroke:#181818;stroke-width:0.5;"/><path d="M1618,31.5 L1618,41.5 L1628,41.5 L1618,31.5 " fill="#FEFFDD" style="stroke:#181818;stroke-width:0.5;"/><text fill="#000000" font-family="sans-serif" font-size="13" lengthAdjust="spacing" textLength="81" x="1528" y="49.9951">Mettre &#224; jour :</text><text fill="#000000" font-family="sans-serif" font-size="13" lengthAdjust="spacing" textLength="49" x="1528" y="66.3467">- D&#233;g&#226;ts</text><text fill="#000000" font-family="sans-serif" font-size="13" lengthAdjust="spacing" textLength="46" x="1528" y="82.6982">- Port&#233;e</text><text fill="#000000" font-family="sans-serif" font-size="13" lengthAdjust="spacing" textLength="85" x="1528" y="99.0498">- Vitesse de tir</text></g><!--link J to UC1--><g id="link_J_UC1"><path d="M49.19,111.61 C73.51,104.09 109.0377,93.1122 142.2577,82.8422 " fill="none" id="J-to-UC1" style="stroke:#181818;stroke-width:1.0;"/><polygon fill="#181818" points="147.99,81.07,138.2101,79.9067,143.2131,82.5468,140.573,87.5498,147.99,81.07" style="stroke:#181818;stroke-width:1.0;"/></g><!--link UC1 to UC2--><g id="link_UC1_UC2"><path d="M289.77,66.62 C309.29,66.98 324.331,67.2495 344.961,67.6295 " fill="none" id="UC1-to-UC2" style="stroke:#181818;stroke-width:1.0;"/><polygon fill="#181818" points="350.96,67.74,342.0352,63.5749,345.9608,67.6479,341.8879,71.5736,350.96,67.74" style="stroke:#181818;stroke-width:1.0;"/></g><!--link J to UC2--><g id="link_J_UC2"><path d="M49.25,117.52 C93.58,116.31 200.78,112.48 290,102 C320.03,98.47 346.6926,94.3002 375.9426,89.1002 " fill="none" id="J-to-UC2" style="stroke:#181818;stroke-width:1.0;"/><polygon fill="#181818" points="381.85,88.05,372.2888,85.687,376.9272,88.9252,373.6891,93.5636,381.85,88.05" style="stroke:#181818;stroke-width:1.0;"/></g><!--link UC2 to UC3--><g id="link_UC2_UC3"><path d="M598.17,70 C619.02,70 634.02,70 652.91,70 " fill="none" id="UC2-to-UC3" style="stroke:#181818;stroke-width:1.0;"/><polygon fill="#181818" points="658.91,70,649.91,66,653.91,70,649.91,74,658.91,70" style="stroke:#181818;stroke-width:1.0;"/></g><!--link UC3 to UC4--><g id="link_UC3_UC4"><path d="M801.09,69.78 C853.59,69.62 919.33,69.419 972.99,69.249 " fill="none" id="UC3-to-UC4" style="stroke:#181818;stroke-width:1.0;"/><polygon fill="#181818" points="978.99,69.23,969.9774,65.2585,973.99,69.2458,970.0027,73.2585,978.99,69.23" style="stroke:#181818;stroke-width:1.0;"/><text fill="#000000" font-family="sans-serif" font-size="13" lengthAdjust="spacing" textLength="77" x="832" y="66.4951">Si co&#251;t valid&#233;</text></g><!--link UC4 to UC5--><g id="link_UC4_UC5"><path d="M1131.18,69 C1163.87,69 1196.78,69 1232.38,69 " fill="none" id="UC4-to-UC5" style="stroke:#181818;stroke-width:1.0;"/><polygon fill="#181818" points="1238.38,69,1229.38,65,1233.38,69,1229.38,73,1238.38,69" style="stroke:#181818;stroke-width:1.0;"/></g><!--SRC=[hL4zJyCm4DtzAqvTEdMW7mi34eA5IaX85UmckHItYLryvueFyLyG4_aDZFvZd1CJqR8IoShvxhrxTturLWpim9lr0qDfF1Pid5MqDNQdlMvWfukjNkEAdsk4LDPsNQDIkc3dOUa21W-QOAdKK8NHwfauVZO89S86mmXU5SWN20jDgHxRkfUow25Ob2627wL6jnSdXzZpgZB5Wy1g972xH28enxgH7iPvdHAPEJratiNMcyfqL2XS_EACcnqfv5O9g7zFCZ_4NIEpHuZli15CDm-nw1ERnu2KIGlrffHQmcHorYqZ9yVJ8JkLx3J7CubdEPx3AQnCFoliTMtAsAgKxiiBfQnZp7QvQbX5EBBYfdV3ZhNOHZ8DuOkybFXqsg4cSDNi796vhpjdYZhDxO6wPU3U1HRlqPQGLFvgpGUj_fK0YK47i6QFyclqqpy9BRekHy_zq_eojklumPIlDyvpR37VxWoZh9r4sVX1uXi0]--></g></svg>